<svg xmlns="http://www.w3.org/2000/svg" fill="none" viewBox="0 0 54 54" id="Laravel--Streamline-Svg-Logos" height="54" width="54">
  <desc>
    Laravel Streamline Icon: https://streamlinehq.com
  </desc>
  <path fill="#ff2d20" d="M52.65225 12.52423125c0.019012499999999998 0.07048125 0.0289125 0.14315625 0.0289125 0.21616875v11.34950625c0 0.29649375 -0.15856874999999998 0.57031875 -0.4158 0.7178625l-9.525825 5.484375v10.870593750000001c0 0.29581875 -0.15721875000000002 0.5689125 -0.413775 0.7178625L22.441443749999998 53.32730625000001c-0.04550625 0.025875 -0.095175 0.0424125 -0.14484375 0.0599625 -0.01861875 0.00624375 -0.03616875 0.01760625 -0.055856249999999996 0.02278125 -0.13899375 0.036618750000000005 -0.285075 0.036618750000000005 -0.42406875 0 -0.02278125 -0.006187499999999999 -0.04348125 -0.01861875 -0.06519375 -0.0268875 -0.04550625 -0.0165375 -0.09309375 -0.03105 -0.13651875 -0.055856249999999996L1.73473875 41.8806c-0.25705125 -0.14765625000000002 -0.415828125 -0.421425 -0.415828125 -0.7178625V7.114275c0 -0.074475 0.010344375 -0.14686875 0.028963125 -0.2172375 0.006204375 -0.02379375 0.02068875 -0.04550625 0.028963125 -0.0693 0.01551375 -0.043425000000000005 0.029998125 -0.08791874999999999 0.05275125 -0.12825 0.015519375 -0.0268875 0.0382725 -0.048600000000000004 0.05689125 -0.0734625 0.02379375 -0.033075 0.0455175 -0.06721875 0.073445625 -0.09618750000000001 0.02379375 -0.02379375 0.05482125 -0.0414 0.08172 -0.062043749999999995 0.029998125 -0.024862500000000003 0.05689125 -0.05175 0.09102375 -0.07138125000000001h0.0010350000000000001L11.67435 0.673048125c0.25610625 -0.1473975 0.5713312500000001 -0.1473975 0.82749375 0L22.44245625 6.396412499999999h0.00208125c0.033075 0.0207 0.06103125 0.04651875 0.0910125 0.0703125 0.0268875 0.0207 0.056924999999999996 0.03931875 0.08071874999999999 0.0621 0.028968749999999998 0.02998125 0.049612500000000004 0.064125 0.074475 0.09720000000000001 0.01755 0.024862500000000003 0.04134375 0.046575 0.055856249999999996 0.0734625 0.02379375 0.0414 0.0372375 0.084825 0.053775 0.12825 0.00826875 0.02379375 0.022725 0.04550625 0.028968749999999998 0.07036875 0.019012499999999998 0.07048125 0.02874375 0.14315625 0.028968749999999998 0.21616875v21.266325000000002l8.2834875 -4.7696625V12.7393875c0 -0.07245 0.01035 -0.14585625 0.028968749999999998 -0.21515625 0.00725625 -0.024862500000000003 0.0207 -0.046575 0.028968749999999998 -0.07036875 0.0165375 -0.043425000000000005 0.03105 -0.08791874999999999 0.053775 -0.12825 0.015525 -0.0268875 0.038250000000000006 -0.048600000000000004 0.055856249999999996 -0.0734625 0.024806250000000002 -0.033075 0.04550625 -0.06721875 0.074475 -0.09618750000000001 0.02379375 -0.02379375 0.053775 -0.0414 0.08071874999999999 -0.062043749999999995 0.03099375 -0.024862500000000003 0.05788125 -0.05175 0.0910125 -0.07138125000000001h0.0010125l9.94168125 -5.723381249999999c0.25605 -0.1476 0.5713875 -0.1476 0.82749375 0L52.266375000000004 12.0225375c0.0352125 0.0207 0.0621 0.04651875 0.09309375 0.0703125 0.025875 0.0207 0.055856249999999996 0.03931875 0.07965 0.0621 0.028968749999999998 0.02998125 0.049668750000000005 0.064125 0.074475 0.09720000000000001 0.01861875 0.024862500000000003 0.0414 0.046575 0.055856249999999996 0.0734625 0.02379375 0.04033125 0.0372375 0.084825 0.05383125 0.12825 0.009281250000000001 0.02379375 0.022725 0.04550625 0.028968749999999998 0.07036875ZM51.024093750000006 23.610937500000002V14.173031250000001l-3.478725 2.0026125 -4.80583125 2.7670500000000002v9.437906250000001l8.28556875 -4.7696625h-0.0010125ZM41.08348125 40.68376875V31.239675l-4.72725 2.699775 -13.4989875 7.70428125v9.533025l18.2262375 -10.4929875ZM2.9760243749999997 8.54690625v32.1368625L21.200175 51.17574375v-9.530999999999999l-9.52070625 -5.388187500000001 -0.0030937499999999997 -0.00208125 -0.00410625 -0.00208125c-0.0320625 -0.01861875 -0.05895 -0.04550625 -0.0889875 -0.0682875 -0.02581875 -0.020643750000000002 -0.055856249999999996 -0.0372375 -0.07858124999999999 -0.0599625l-0.00208125 -0.0030937499999999997c-0.0268875 -0.025875 -0.04550625 -0.057937499999999996 -0.0682875 -0.08690625 -0.0207 -0.027956250000000002 -0.04550625 -0.05175 -0.062043749999999995 -0.0806625l-0.00106875 -0.00315c-0.01861875 -0.03099375 -0.02998125 -0.06823125000000001 -0.043425000000000005 -0.10344375 -0.01344375 -0.03099375 -0.03105 -0.0599625 -0.03931875 -0.09309375v-0.0010125c-0.01035 -0.03931875 -0.012374999999999999 -0.0806625 -0.0165375 -0.12105 -0.00410625 -0.03099375 -0.012431250000000001 -0.062043749999999995 -0.012431250000000001 -0.09309375V13.31656875l-4.8047625 -2.7680625 -3.478719375 -2.0005312500000003v-0.00106875ZM12.089137500000001 2.346710625 3.8066512500000003 7.114275l8.280405 4.76758125 8.28140625 -4.768593749999999 -8.28140625 -4.766551875h0.00208125Zm4.30723125 29.753589374999997 4.80481875 -2.76598125V8.54690625l-3.478725 2.0026125 -4.80583125 2.7670500000000002v20.787356250000002l3.4797375 -2.003625Zm25.51561875 -24.127481250000002 -8.28140625 4.76758125 8.28140625 4.76758125 8.28045 -4.768593749999999 -8.28045 -4.76656875Zm-0.82850625 10.969875 -4.8058875 -2.7670500000000002 -3.47866875 -2.0026125V23.610937500000002l4.80481875 2.7660375 3.4797375 2.003625V18.94269375Zm-19.055812500000002 21.26835L34.174687500000005 33.27643125l6.071962500000001 -3.46528125 -8.275275 -4.76443125 -9.52785 5.48544375 -8.68381875 4.999275000000001 8.267962500000001 4.67960625Z" stroke-width="0.5625"></path>
</svg>