<svg xmlns="http://www.w3.org/2000/svg" fill="none" viewBox="0 0 54 54" id="Nuxt-Icon--Streamline-Svg-Logos" height="54" width="54">
  <desc>
    Nuxt Icon Streamline Icon: https://streamlinehq.com
  </desc>
  <path fill="#00dc82" d="M30.225825 44.2492875h19.65583125c0.624375 0 1.2376687499999999 -0.15924375000000002 1.7782875 -0.46209375 0.540675 -0.30285 0.98960625 -0.7383375 1.301625 -1.26286875 0.3119625 -0.524475 0.47593125 -1.1194312499999999 0.47593125 -1.72501875s-0.16492500000000002 -1.200375 -0.47750625 -1.72468125L39.75975 16.8969375c-0.31201875 -0.5243625000000001 -0.76089375 -0.95985 -1.30145625 -1.2625875 -0.5405625 -0.30279375 -1.1537437499999998 -0.46215 -1.7778937499999998 -0.46215 -0.62420625 0 -1.23744375 0.15935625 -1.7779500000000001 0.46215 -0.5405625 0.3027375 -0.98938125 0.738225 -1.3014000000000001 1.2625875l-3.375225 5.674499999999999 -6.59925 -11.09626875c-0.3121875 -0.5243625000000001 -0.76123125 -0.9597374999999999 -1.3019062499999998 -1.262475 -0.54073125 -0.30268125 -1.15408125 -0.4620375 -1.7782875 -0.4620375 -0.6242624999999999 0 -1.23755625 0.15935625 -1.7783437500000001 0.4620375 -0.540675 0.3027375 -0.9896625 0.7381125000000001 -1.3019062499999998 1.262475L1.0399331250000001 39.074625C0.72743625 39.59893125 0.5625 40.19371875 0.5625 40.79930625s0.16385625 1.20054375 0.475880625 1.72501875c0.312024375 0.52453125 0.760944375 0.96001875 1.30159125 1.26286875 0.540658125 0.30285 1.15399125 0.46209375 1.7783099999999998 0.46209375H16.45655625c4.8886312499999995 0 8.49375 -2.0828249999999997 10.97443125 -6.14638125L33.4535625 27.985837500000002l3.225825 -5.4144000000000005L46.360856250000005 38.835H33.4535625l-3.2277375 5.4142875Zm-13.97041875 -5.4198562500000005 -8.610525 -0.0019125L20.552062499999998 17.1441l6.4402875 10.8417375 -4.31206875 7.24640625c-1.6473375 2.6365499999999997 -3.5188875 3.5971874999999995 -6.424875 3.5971874999999995Z" stroke-width="0.5625"></path>
</svg>