<svg xmlns="http://www.w3.org/2000/svg" fill="none" viewBox="0 0 54 54" id="Postgresql--Streamline-Svg-Logos" height="54" width="54">
  <desc>
    Postgresql Streamline Icon: https://streamlinehq.com
  </desc>
  <path fill="#000000" d="M52.507237499999995 32.235693749999996c-0.30825 -0.9334125 -1.11571875 -1.58371875 -2.1600562500000002 -1.7398125 -0.49235625 -0.07351875000000001 -1.05631875 -0.042131249999999995 -1.72355625 0.09545624999999999 -1.1630812499999998 0.2399625 -2.0260124999999998 0.33125625 -2.65573125 0.34903125 2.37695625 -4.013325 4.30981875 -8.59010625 5.42255625 -12.8982375 1.7992124999999999 -6.96605625 0.83773125 -10.1395125 -0.28575 -11.57506875C48.13126875 2.6677518750000004 43.793043749999995 0.626574375 38.55915 0.5640075c-2.7918 -0.03407625 -5.24295 0.517179375 -6.5214 0.913494375 -1.190475 -0.20991375 -2.4706125 -0.3272175 -3.81380625 -0.34894125 -2.5173562499999997 -0.04012875 -4.741875 0.5086293749999999 -6.6426187500000005 1.63654875 -1.05249375 -0.355708125 -2.7411749999999997 -0.857334375 -4.691531250000001 -1.1775487500000001 -4.5871875 -0.753091875 -8.284162499999999 -0.16621875 -10.98826875 1.74412125C2.626970625 5.64474375 1.1089125 9.66346875 1.3897068750000001 15.276318750000002c0.08904375 1.7821125 1.0860075 7.20410625 2.655590625 12.346312500000002 0.9020981250000001 2.95554375 1.86404625 5.410012500000001 2.85910875 7.295625 1.4110875 2.6738999999999997 2.92095 4.2485625 4.61604375 4.8139875 0.950175 0.31663125 2.676375 0.5382 4.49206875 -0.9736875 0.23011875 0.27849375 0.53701875 0.555525 0.94460625 0.8126437500000001 0.5173875 0.32641875000000004 1.15025625 0.5931 1.7821125 0.75110625 2.2775625 0.56941875 4.41084375 0.4269375 6.23086875 -0.371025 0.011137500000000002 0.3236625 0.0198 0.632925 0.027168750000000002 0.89994375 0.012093749999999999 0.4332375 0.023962499999999998 0.8579249999999999 0.03988125 1.25510625 0.10783125 2.685825 0.29053124999999996 4.774162499999999 0.8319375 6.23525625 0.0297 0.08049375 0.06969375 0.20289375 0.11193750000000001 0.3326625 0.27 0.82704375 0.7218 2.2114125 1.87070625 3.2957437499999997 1.190025 1.1230875 2.6292375 1.4676187500000002 3.94734375 1.46750625 0.66110625 0 1.29189375 -0.08668124999999999 1.84505625 -0.20525625 1.97218125 -0.42260624999999996 4.2118875 -1.0665562499999999 5.83205625 -3.373425 1.5316874999999999 -2.1809250000000002 2.27638125 -5.4657 2.4111562500000003 -10.641543749999999 0.0174375 -0.14625 0.03358125 -0.285975 0.049106250000000004 -0.41923125 0.0104625 -0.08983125 0.021150000000000002 -0.18174375 0.03195 -0.27343125l0.36095625000000003 0.031724999999999996 0.09292500000000001 0.0063c2.0086875 0.09151875000000001 4.464675 -0.3344625 5.9730187500000005 -1.03505625 1.19188125 -0.5531625 5.01114375 -2.56944375 4.1119312500000005 -5.2918875Z" stroke-width="0.5625"></path>
  <path fill="#336791" d="M49.072725 32.765175c-5.9722875 1.2319312500000001 -6.382856250000001 -0.7900875 -6.382856250000001 -0.7900875C48.995662499999995 22.61835 51.63164999999999 10.74133125 49.35684375 7.8345 43.15089375 -0.09475368749999999 32.40815625 3.6552768749999998 32.2288875 3.7526343750000004l-0.0577125 0.010333125c-1.17995625 -0.24493499999999999 -2.500425 -0.39085312499999997 -3.9845249999999997 -0.415074375 -2.7023625 -0.044285624999999995 -4.752224999999999 0.7084518750000001 -6.30770625 1.888014375 0 0 -19.164031875 -7.894833749999999 -18.272739375 9.92926125 0.18960749999999998 3.791925 5.434914375 28.69149375 11.691264375 21.17064375 2.28673125 -2.7500625000000003 4.496175 -5.0753812499999995 4.496175 -5.0753812499999995 1.09738125 0.729 2.4111000000000002 1.10086875 3.7883812499999996 0.967275l0.10693124999999999 -0.09084375c-0.03324375 0.34149375 -0.01805625 0.6754500000000001 0.042862500000000005 1.07083125 -1.61173125 1.80073125 -1.1381062499999999 2.1169124999999998 -4.36005 2.78015625 -3.2601375 0.67185 -1.3449375 1.8680625000000002 -0.0945 2.18064375 1.5159375 0.37912500000000005 5.0230125 0.91614375 7.3927125 -2.40114375l-0.0945 0.37850625000000004c0.63151875 0.5058 1.07499375 3.2900625000000003 1.0006312499999999 5.814 -0.07430624999999999 2.52405 -0.12391875 4.2568875 0.37366875 5.610375 0.4975875 1.35354375 0.9934875 4.39891875 5.228999999999999 3.4913250000000002 3.53919375 -0.75841875 5.3731687500000005 -2.7238499999999997 5.62831875 -6.00226875 0.18106875 -2.330775 0.59079375 -1.9862437499999999 0.61666875 -4.070025l0.32866875 -0.9865125c0.37895625 -3.1594499999999996 0.0601875 -4.17875625 2.2406625 -3.70468125l0.529875 0.04651875c1.6048125000000002 0.07306874999999999 3.70524375 -0.258075 4.93801875 -0.83109375 2.65449375 -1.231875 4.2288749999999995 -3.28876875 1.61150625 -2.74831875h0.00022500000000000002Z" stroke-width="0.5625"></path>
  <path fill="#ffffff" d="M23.00090625 16.860993750000002c-0.5380875 -0.074925 -1.02555 -0.005568750000000001 -1.2721500000000001 0.18106875 -0.138825 0.105075 -0.1816875 0.22674375000000002 -0.1931625 0.3106125 -0.03099375 0.22190625 0.12453750000000001 0.46715625 0.21999375 0.5937187500000001 0.270225 0.3582 0.6650999999999999 0.6044625 1.0559812499999999 0.65874375 0.0565875 0.00781875 0.11289374999999999 0.01164375 0.16891875 0.01164375 0.651825 0 1.24425 -0.5074875 1.29650625 -0.88205625 0.06530625 -0.46912499999999996 -0.6157125 -0.78181875 -1.2760875 -0.87373125Z" stroke-width="0.5625"></path>
  <path fill="#ffffff" d="M40.83024375 16.8757875c-0.0513 -0.36770624999999996 -0.7058249999999999 -0.47255624999999996 -1.3267687499999998 -0.38626875 -0.62004375 0.08645625 -1.22135625 0.3663 -1.17118125 0.73485 0.0403875 0.28659375 0.5576625 0.77585625 1.1703375 0.77574375 0.0516375 0 0.10389375 -0.0034312500000000003 0.1564875 -0.010799999999999999 0.40888125 -0.05664375 0.70891875 -0.31629375000000004 0.8514 -0.46597500000000003 0.217125 -0.22798125 0.34261874999999997 -0.48228750000000004 0.31972500000000004 -0.64755Z" stroke-width="0.5625"></path>
  <path fill="#ffffff" d="M51.06009375 32.62561875c-0.22769999999999999 -0.6886687499999999 -0.9605812499999999 -0.91029375 -2.17839375 -0.65874375 -3.61575 0.7462125 -4.9106250000000005 0.229275 -5.335875000000001 -0.0838125 2.81053125 -4.28158125 5.12251875 -9.45680625 6.36975 -14.2855875 0.59090625 -2.28729375 0.9172687500000001 -4.4114625 0.943875 -6.1427812500000005 0.029475 -1.90063125 -0.29407500000000003 -3.29698125 -0.96170625 -4.1500125 -2.6914499999999997 -3.4391024999999997 -6.64138125 -5.283781875 -11.42296875 -5.33448 -3.28708125 -0.036922500000000004 -6.06436875 0.8043862500000001 -6.60279375 1.040895 -1.1338875 -0.28198124999999996 -2.3699812500000004 -0.455090625 -3.71548125 -0.47716875000000003 -2.4678 -0.0398925 -4.60074375 0.550895625 -6.3668249999999995 1.755039375 -0.7670812499999999 -0.28542375 -2.7496125 -0.965975625 -5.17393125 -1.3564687500000001 -4.19158125 -0.674971875 -7.52225625 -0.16360875 -9.8992125 1.5203137500000001C3.880344375 6.46216875 2.5710075000000003 10.053956249999999 2.824734375 15.12815625c0.085365 1.7073 1.05798375 6.9590250000000005 2.593141875 11.988562499999999C7.4385 33.73644375 9.63489375 37.4839875 11.946037500000001 38.25472499999999c0.27045 0.09028125000000001 0.5824687500000001 0.15339375 0.9263250000000001 0.15339375 0.8430749999999999 0 1.8766124999999998 -0.380025 2.95205625 -1.6728750000000001 1.786275 -2.148975 3.4540312500000003 -3.94970625 4.0687875 -4.60400625 0.90855 0.48774375 1.906425 0.7599374999999999 2.9273625 0.787275 0.0018000000000000002 0.02671875 0.0045562499999999995 0.0534375 0.00691875 0.08004375000000001 -0.20480625 0.2428875 -0.37282499999999996 0.45579375 -0.5159812500000001 0.6375375 -0.7072875000000001 0.89780625 -0.8544937499999999 1.084725 -3.13126875 1.55356875 -0.64749375 0.13359374999999998 -2.3677875 0.48808125 -2.39281875 1.6938 -0.027450000000000002 1.3172625 2.0331 1.8705375000000002 2.26794375 1.92920625 0.8181562499999999 0.20480625 1.606275 0.30583125 2.3579437500000004 0.30583125 1.82818125 -0.00011250000000000001 3.4368187499999996 -0.6008625000000001 4.722525 -1.7633812500000001 -0.03965625 4.6963125 0.1562625 9.324 0.7201125 10.734018749999999 0.4617 1.1541375 1.59001875 3.9751312500000004 5.15385 3.9749062499999996 0.5227875 0 1.09850625 -0.06080625 1.73165625 -0.19648125 3.71930625 -0.7975125 5.33435625 -2.44130625 5.9592375 -6.06538125 0.33429375000000006 -1.9368 0.90815625 -6.562012500000001 1.177875 -9.04280625 0.5695312499999999 0.17758125 1.30280625 0.25891875 2.095425 0.25880625 1.6531875 0 3.56068125 -0.35116875 4.75700625 -0.9064687499999999 1.34375625 -0.6240375 3.76891875 -2.1556687500000002 3.3291 -3.4860937499999998ZM42.202856249999996 15.86115c-0.01231875 0.73243125 -0.11311875 1.3973625 -0.21999375 2.0914312500000003 -0.11491875 0.7464375 -0.2338875 1.5181874999999998 -0.2638125 2.4550312499999998 -0.0295875 0.91175625 0.08431875 1.85968125 0.19445625 2.77621875 0.222525 1.85146875 0.45084375 3.75766875 -0.433125 5.638556250000001 -0.1373625 -0.24401250000000002 -0.26994375 -0.5101875 -0.39155625000000005 -0.8049937500000001 -0.10980000000000001 -0.2662875 -0.34835625 -0.69406875 -0.67854375 -1.2861562500000001 -1.2850875000000002 -2.3045062499999998 -4.2943500000000006 -7.7011875000000005 -2.7538875000000003 -9.903375 0.458775 -0.65559375 1.6232625 -1.3294124999999999 4.5464625 -0.9667125Zm-3.5431875 -12.40779375c4.28416875 0.09462937499999999 7.6730625 1.697338125 10.07251875 4.7633624999999995 1.84033125 2.3518125 -0.18613125000000003 13.05275625 -6.0526124999999995 22.28450625 -0.057937499999999996 -0.07363125 -0.11694375 -0.1479375 -0.177975 -0.2242125 -0.02435625 -0.0304875 -0.049162500000000005 -0.061481249999999994 -0.07419374999999999 -0.0928125 1.51588125 -2.5036312499999998 1.21944375 -4.98065625 0.95563125 -7.17688125 -0.10839375000000001 -0.90129375 -0.21076874999999998 -1.75258125 -0.18478125 -2.5520625 0.027 -0.84774375 0.13905 -1.57449375 0.24733125 -2.2773375000000002 0.1333125 -0.86625 0.26881875 -1.762425 0.2314125 -2.81896875 0.027899999999999998 -0.11075625 0.03915 -0.24170625 0.024581250000000002 -0.39712499999999995 -0.09545624999999999 -1.01323125 -1.252125 -4.04521875 -3.6098437500000005 -6.789825 -1.2894750000000001 -1.500975 -3.1702500000000002 -3.180875625 -5.73811875 -4.313896875 1.104525 -0.228909375 2.61500625 -0.44238375 4.30605 -0.404746875ZM14.686425 35.78900625c-1.18479375 1.424475 -2.0030625 1.15155 -2.2721062499999998 1.0618874999999999 -1.75325625 -0.58483125 -3.78748125 -4.29024375 -5.58095625 -10.16623125 -1.55190375 -5.084268750000001 -2.458873125 -10.19683125 -2.530580625 -11.630475 -0.22665375000000001 -4.53403125 0.8724149999999999 -7.69393125 3.266780625 -9.39200625 3.8966624999999997 -2.763405 10.30325625 -1.109401875 12.877537499999999 -0.270466875 -0.03706875 0.036449999999999996 -0.07554375 0.07064437500000001 -0.11221875 0.107685 -4.22420625 4.266275625 -4.124025 11.555206875 -4.113675 12.000706874999999 -0.00033749999999999996 0.1719 0.01400625 0.41529374999999996 0.03380625 0.75009375 0.072675 1.2259125 0.2079 3.5076375 -0.15339375 6.0915937499999995 -0.33586875 2.4012 0.40426875 4.75138125 2.0303999999999998 6.44805 0.16835625 0.17555625 0.34408125 0.34048124999999996 0.5256 0.495675 -0.7238812499999999 0.77518125 -2.2969125 2.48923125 -3.97119375 4.5034875Zm4.51411875 -6.02319375c-1.310625 -1.3674375 -1.9058062500000001 -3.26953125 -1.6332187500000002 -5.2191 0.3816 -2.7296437499999997 0.24069375 -5.106937500000001 0.1650375 -6.384093750000001 -0.010575000000000001 -0.17870624999999998 -0.0199125 -0.33530625 -0.0255375 -0.4588875 0.617175 -0.5470875000000001 3.47698125 -2.0795625 5.51638125 -1.6122375 0.930825 0.21324375 1.49776875 0.8469 1.73356875 1.93708125 1.2202875 5.64350625 0.16155 7.995712500000001 -0.68911875 9.88588125 -0.1753875 0.38941875000000004 -0.3409875 0.75751875 -0.4825125 1.1383875l-0.109575 0.2943c-0.27759375 0.7443 -0.5358375 1.4362875 -0.69586875 2.09345625 -1.3931437500000001 -0.004275 -2.74854375 -0.59934375 -3.7791562499999998 -1.6747874999999999Zm0.21386249999999998 7.611075c-0.4068 -0.10164375 -0.7727062499999999 -0.2782125 -0.98735625 -0.42457500000000004 0.17926874999999998 -0.08443125000000001 0.49843125 -0.199125 1.05181875 -0.31308749999999996 2.6784 -0.55153125 3.0918937499999997 -0.94055625 3.9952125 -2.08749375 0.20716875 -0.26285625 0.44189999999999996 -0.56098125 0.76696875 -0.924075l0.00033749999999999996 -0.00045000000000000004c0.4843125 -0.5421374999999999 0.70576875 -0.450225 1.10739375 -0.28366874999999997 0.325575 0.134775 0.6425437500000001 0.5427 0.77113125 0.9917437499999999 0.06080625 0.2120625 0.12920625 0.61464375 -0.0943875 0.92773125 -1.88690625 2.6419499999999996 -4.6364624999999995 2.60803125 -6.61111875 2.113875Zm14.016825 13.043587500000001c-3.2765625000000003 0.70205625 -4.436662500000001 -0.96975 -5.2011562499999995 -2.8809562499999997 -0.493425 -1.2339 -0.7358625 -6.79786875 -0.56385 -12.942168749999999 0.00230625 -0.08184374999999999 -0.0093375 -0.1607625 -0.03189375 -0.2350125 -0.01963125 -0.14326875 -0.04978125 -0.28822499999999995 -0.091575 -0.43419375000000004 -0.2559375 -0.89398125 -0.8794124999999999 -1.64188125 -1.62736875 -1.951875 -0.29722499999999996 -0.12313125000000001 -0.8427375 -0.34903125 -1.498275 -0.18140625 0.13989375 -0.57594375 0.38233125 -1.22625 0.6450750000000001 -1.9304999999999999l0.11030625 -0.29638125000000004c0.1242 -0.33395625 0.27984375 -0.67995 0.4446 -1.0460812499999999 0.8902687499999999 -1.97780625 2.1094875 -4.68658125 0.7862625 -10.8061875 -0.49573124999999996 -2.2920749999999996 -2.150775 -3.41128125 -4.6598625 -3.15140625 -1.50429375 0.15564375 -2.8803374999999996 0.76258125 -3.5667 1.1106 -0.1476 0.07475625 -0.28259999999999996 0.14698124999999998 -0.40865625 0.21735000000000002 0.19147499999999998 -2.3094562499999998 0.91535625 -6.62535 3.6228375 -9.35600625 1.7046000000000001 -1.71918 3.9749062499999996 -2.56820625 6.74105625 -2.5224975 5.45023125 0.08928562500000001 8.9452125 2.8862662500000003 10.917675 5.217041249999999 1.69959375 2.00851875 2.61995625 4.0316624999999995 2.9872687499999997 5.122743750000001 -2.7622125 -0.28074375 -4.64085 0.26454375 -5.593275 1.6260187499999998 -2.0718 2.9615625 1.13349375 8.70991875 2.6740125 11.472468749999999 0.28243125 0.5063625 0.52633125 0.943875 0.603 1.1298375 0.5016375000000001 1.2157312500000002 1.1511 2.0273625 1.6252875000000002 2.61995625 0.14535 0.18151875 0.28636875 0.35758125 0.39358125 0.51136875 -0.83655 0.24125625 -2.3392687499999996 0.7984125 -2.2024125 3.5839125000000003 -0.11041875 1.3978125 -0.89589375 7.941599999999999 -1.29481875 10.25364375 -0.526725 3.054375 -1.6507125 4.19214375 -4.81111875 4.869731249999999Zm13.676512500000001 -15.6511125c-0.85539375 0.39712499999999995 -2.2870125000000003 0.695025 -3.64708125 0.758925 -1.50215625 0.07036875 -2.2667625 -0.16824375 -2.44665 -0.31500000000000006 -0.0844875 -1.73581875 0.5617125000000001 -1.917225 1.2454874999999999 -2.1092062499999997 0.1074375 -0.0302625 0.21228750000000002 -0.059625 0.313425 -0.09500625 0.06294374999999999 0.0511875 0.13179375000000002 0.10198125 0.20716875 0.1517625 1.20735 0.7968937500000001 3.36088125 0.8828437499999999 6.4009125000000004 0.255375 0.011137500000000002 -0.0023625 0.02233125 -0.0045000000000000005 0.03335625 -0.00675 -0.40995 0.38334375 -1.11166875 0.89791875 -2.10661875 1.3599Z" stroke-width="0.5625"></path>
</svg>