<svg xmlns="http://www.w3.org/2000/svg" fill="none" viewBox="0 0 54 54" id="Typescript-Icon--Streamline-Svg-Logos" height="54" width="54">
  <desc>
    Typescript Icon Streamline Icon: https://streamlinehq.com
  </desc>
  <path fill="#3178c6" d="M4.693359375 0.5625H49.3066125C51.58805625 0.5625 53.4375 2.411949375 53.4375 4.693359375V49.3066125C53.4375 51.58805625 51.58805625 53.4375 49.3066125 53.4375H4.693359375C2.411949375 53.4375 0.5625 51.58805625 0.5625 49.3066125V4.693359375C0.5625 2.411949375 2.411949375 0.5625 4.693359375 0.5625Z" stroke-width="0.5625"></path>
  <path fill="#ffffff" d="M31.650918750000002 41.96919375v5.70470625c0.9277875 0.47548125 2.0251687499999997 0.8319937500000001 3.29191875 1.0697062499999999 1.26669375 0.2377125 2.6017875 0.3565125 4.00545 0.3565125 1.36771875 0 2.66731875 -0.13078125000000002 3.89829375 -0.39223125000000003 1.23103125 -0.26150625 2.3106375 -0.692325 3.2382 -1.29234375 0.9277875 -0.60024375 1.66224375 -1.38465 2.20359375 -2.3533874999999997 0.541125 -0.96845625 0.81174375 -2.1657937499999997 0.81174375 -3.59195625 0 -1.03393125 -0.15474375 -1.9402875 -0.46389375 -2.7187312500000003 -0.30920624999999996 -0.77844375 -0.755325 -1.47076875 -1.3382437500000002 -2.0768062499999997 -0.5826375 -0.6062062500000001 -1.2815437500000002 -1.14980625 -2.09615625 -1.6312499999999999 -0.8148375000000001 -0.481275 -1.7337375 -0.93583125 -2.75675625 -1.3636125 -0.7493062500000001 -0.30920624999999996 -1.4212125000000002 -0.609075 -2.01605625 -0.9003375 -0.59461875 -0.29120625 -1.10025 -0.58820625 -1.51644375 -0.89139375 -0.41636249999999997 -0.30301875 -0.7375499999999999 -0.6239812499999999 -0.96350625 -0.9627187500000001 -0.22595625 -0.33873749999999997 -0.3389625 -0.7218562500000001 -0.3389625 -1.14980625 0 -0.39223125000000003 0.101025 -0.7456499999999999 0.30324375000000003 -1.06059375 0.2021625 -0.31500000000000006 0.48785625 -0.5853375 0.85651875 -0.811125 0.3686625 -0.22595625 0.820575 -0.40111874999999997 1.3559625 -0.52605 0.53510625 -0.1247625 1.12995 -0.18714375 1.78408125 -0.18714375 0.475875 0 0.9784125 0.03571875 1.50755625 0.1069875 0.52936875 0.07126875 1.0616625 0.181125 1.5969937500000002 0.32985000000000003 0.5351625 0.14850000000000002 1.055475 0.33564375 1.5610499999999998 0.5616 0.50540625 0.22573125 0.97239375 0.4872375 1.40056875 0.7842375v-5.33025c-0.868275 -0.33271875 -1.81693125 -0.579375 -2.84574375 -0.73985625 -1.02875625 -0.16048125 -2.2093875 -0.24058125000000002 -3.54155625 -0.24058125000000002 -1.3559625 0 -2.6404875000000003 0.14557499999999998 -3.8536875 0.4368375 -1.21325625 0.29098124999999997 -2.28088125 0.7455937499999999 -3.20265 1.36355625 -0.921825 0.6181875 -1.65031875 1.40551875 -2.18565 2.3622750000000003 -0.5351625 0.9567000000000001 -0.80285625 2.10054375 -0.80285625 3.4316999999999998 0 1.699425 0.49055624999999997 3.1493812500000002 1.4720625 4.3497562499999995 0.98128125 1.2002625 2.4708375 2.21641875 4.469175 3.0484125000000004 0.78508125 0.3209625 1.5166125000000001 0.6357375000000001 2.19448125 0.9448875 0.67809375 0.3090375 1.26388125 0.629775 1.7574750000000001 0.96249375 0.49365000000000003 0.332775 0.88318125 0.69525 1.16865 1.08748125 0.28541249999999996 0.39223125000000003 0.428175 0.83795625 0.428175 1.3371750000000002 0 0.36826875 -0.08926875000000001 0.71004375 -0.26769375 1.02504375 -0.17825625 0.31477499999999997 -0.44904375 0.5882625 -0.81174375 0.8199562499999999 -0.36264375000000004 0.23174999999999998 -0.8147812499999999 0.41293124999999997 -1.3559062499999999 0.5436562500000001 -0.54118125 0.130725 -1.1746125 0.19619999999999999 -1.9002375 0.19619999999999999 -1.2369937500000001 0 -2.4619500000000003 -0.21684375 -3.6752062499999996 -0.6508125 -1.213425 -0.43374375 -2.33746875 -1.08433125 -3.37224375 -1.95204375ZM22.14253125 27.772875000000003h7.335956250000001v-4.6972125H9.03076875v4.6972125h7.30018125v20.91414375h5.81158125V27.772875000000003Z" stroke-width="0.5625"></path>
</svg>